<?xml version="1.0" standalone="no"?>
<!DOCTYPE svg PUBLIC "-//W3C//DTD SVG 20010904//EN"
 "http://www.w3.org/TR/2001/REC-SVG-20010904/DTD/svg10.dtd">
<svg version="1.0" xmlns="http://www.w3.org/2000/svg"
 width="225.000000pt" height="225.000000pt" viewBox="0 0 225.000000 225.000000"
 preserveAspectRatio="xMidYMid meet">

<g transform="translate(0.000000,225.000000) scale(0.100000,-0.100000)"
fill="#000000" stroke="none">
<path d="M375 1371 c4 -14 0 -23 -14 -30 -27 -15 -29 -14 -33 9 -4 29 -22 30
-26 3 -5 -33 -42 -31 -42 2 0 31 -17 33 -22 3 -2 -12 -9 -23 -17 -26 -11 -4
-12 2 -7 23 5 20 3 26 -6 22 -7 -2 -12 -10 -10 -17 2 -7 -6 -19 -17 -27 -11
-7 -25 -30 -30 -50 -10 -37 -5 -65 9 -43 4 6 10 -16 14 -51 4 -34 14 -68 21
-76 12 -12 15 -6 21 37 8 62 24 66 24 6 0 -61 17 -67 26 -9 4 27 10 57 14 68
7 19 7 19 18 0 5 -11 13 -42 18 -70 6 -43 8 -47 15 -25 4 14 10 51 14 83 8 71
25 75 26 5 0 -29 5 -62 10 -73 6 -14 7 -8 3 21 -3 25 -1 45 5 49 7 4 11 -12
12 -47 1 -45 3 -49 9 -23 4 17 8 49 9 72 1 32 4 41 15 37 9 -3 17 3 21 16 7
22 -15 65 -43 86 -9 6 -13 18 -9 28 5 11 1 16 -14 16 -16 0 -19 -5 -14 -19z"/>
<path d="M651 1338 c1 -24 3 -35 6 -26 2 9 12 19 21 21 15 4 15 5 0 6 -26 2
-22 29 5 34 19 4 18 4 -5 6 -27 1 -28 -1 -27 -41z"/>
<path d="M732 1368 c-32 -32 3 -87 45 -71 15 6 12 8 -12 13 -40 7 -43 50 -5
61 21 6 22 7 5 8 -12 1 -26 -4 -33 -11z"/>
<path d="M810 1359 c-14 -25 -8 -44 19 -58 15 -8 24 -7 42 8 21 16 22 22 11
45 -15 33 -56 36 -72 5z m64 -12 c9 -14 7 -21 -7 -32 -33 -24 -71 11 -46 42
15 18 39 13 53 -10z"/>
<path d="M910 1340 c0 -22 3 -40 8 -40 4 0 6 18 4 40 -2 22 -6 40 -8 40 -2 0
-4 -18 -4 -40z"/>
<path d="M970 1340 c0 -22 4 -40 10 -40 5 0 7 6 4 14 -4 9 3 16 18 19 l23 4
-22 2 c-33 2 -29 29 5 34 25 4 25 4 -5 6 -32 1 -33 0 -33 -39z"/>
<path d="M1080 1363 c0 -13 4 -23 9 -23 5 0 13 -9 16 -20 6 -20 25 -19 25 2 0
6 -3 8 -7 4 -4 -4 -15 8 -25 26 -15 29 -17 30 -18 11z"/>
<path d="M1136 1365 c-4 -12 -3 -21 3 -23 6 -2 11 -13 12 -25 0 -12 3 -17 5
-10 3 6 1 26 -4 44 -7 29 -9 31 -16 14z"/>
<path d="M1197 1345 c-9 -19 -17 -37 -17 -38 0 -1 15 -2 34 -2 33 0 34 1 21
25 -7 14 -14 31 -16 38 -3 8 -12 -2 -22 -23z m22 -24 c-15 -5 -22 6 -14 19 6
9 10 9 16 -1 5 -8 4 -15 -2 -18z"/>
<path d="M1271 1333 c1 -27 4 -38 6 -25 2 12 8 22 12 22 5 0 16 -10 25 -22 15
-21 16 -21 7 -2 -7 14 -7 24 1 32 17 17 1 42 -27 42 -23 0 -25 -3 -24 -47z
m47 20 c2 -8 -5 -13 -17 -13 -12 0 -21 6 -21 16 0 18 31 15 38 -3z"/>
<path d="M1362 1368 c-34 -34 6 -90 48 -68 35 19 20 80 -20 80 -9 0 -21 -5
-28 -12z m56 -24 c4 -29 -23 -51 -43 -34 -16 13 -20 42 -8 54 14 14 48 1 51
-20z"/>
<path d="M1462 1368 c-33 -33 7 -93 46 -68 14 10 15 11 0 6 -23 -7 -51 17 -46
40 2 13 12 19 30 19 15 -1 24 3 22 7 -8 12 -38 10 -52 -4z"/>
<path d="M1620 1340 c0 -22 2 -40 4 -40 2 0 6 18 8 40 2 22 0 40 -4 40 -5 0
-8 -18 -8 -40z"/>
<path d="M1661 1339 c2 -29 3 -35 6 -16 2 15 6 27 9 27 3 0 16 -12 29 -27 l24
-28 -1 45 c-1 31 -2 36 -5 16 l-5 -28 -29 28 -29 28 1 -45z"/>
<path d="M1760 1340 c0 -22 4 -40 10 -40 5 0 7 6 4 14 -4 9 3 16 18 19 l23 4
-22 2 c-13 0 -23 7 -23 15 0 8 10 17 23 19 19 4 18 4 -5 6 -26 1 -28 -2 -28
-39z"/>
<path d="M1860 1340 c0 -22 4 -40 8 -40 4 0 6 16 4 36 -4 33 -2 35 19 32 30
-4 37 -37 13 -56 -18 -13 -18 -14 1 -10 23 4 32 42 15 64 -7 7 -23 14 -36 14
-21 0 -24 -5 -24 -40z"/>
<path d="M1959 1338 c3 -24 6 -35 8 -26 3 9 12 19 21 21 15 4 15 5 0 6 -26 2
-22 29 5 34 17 3 15 5 -8 6 -30 1 -30 0 -26 -41z"/>
<path d="M2024 1368 c-4 -6 2 -19 14 -29 29 -23 29 -42 0 -34 -21 5 -21 5 -4
-6 14 -9 21 -8 33 4 14 14 13 17 -6 33 -26 22 -26 31 -3 37 13 4 12 5 -5 6
-12 0 -25 -4 -29 -11z"/>
<path d="M1548 1338 l-15 -33 33 0 c19 0 34 0 34 1 0 11 -24 64 -29 64 -4 0
-14 -15 -23 -32z m32 -3 c0 -8 -7 -15 -15 -15 -9 0 -12 6 -9 15 4 8 10 15 15
15 5 0 9 -7 9 -15z"/>
<path d="M1072 1310 c0 -14 2 -19 5 -12 2 6 2 18 0 25 -3 6 -5 1 -5 -13z"/>
<path d="M650 1217 c0 -7 9 -18 20 -25 12 -7 18 -18 14 -25 -5 -9 -4 -9 6 0
11 10 9 17 -13 37 -15 14 -27 20 -27 13z"/>
<path d="M715 1210 c-8 -26 11 -50 39 -49 19 2 19 2 -2 6 -28 6 -39 28 -22 48
8 9 8 15 2 15 -6 0 -14 -9 -17 -20z"/>
<path d="M803 1195 c0 -22 2 -30 4 -17 2 12 2 30 0 40 -3 9 -5 -1 -4 -23z"/>
<path d="M831 1198 c-1 -35 1 -38 27 -37 23 2 24 2 5 6 -27 5 -30 20 -5 26 15
4 15 5 0 6 -9 0 -19 9 -21 19 -3 9 -5 0 -6 -20z"/>
<path d="M901 1194 c2 -33 3 -34 6 -10 l5 29 23 -29 24 -29 -1 40 c0 24 -2 31
-5 17 l-5 -24 -24 23 -24 22 1 -39z"/>
<path d="M985 1210 c-9 -28 12 -50 44 -49 l26 2 -28 4 c-33 5 -45 27 -27 48 8
9 8 15 2 15 -6 0 -14 -9 -17 -20z"/>
<path d="M1071 1198 c-1 -33 2 -38 22 -37 16 1 18 2 5 6 -10 2 -18 8 -18 13 0
5 8 11 18 13 15 4 15 5 0 6 -9 0 -19 9 -21 19 -3 9 -5 0 -6 -20z"/>
<path d="M1130 1216 c0 -8 9 -20 20 -26 11 -6 17 -16 14 -22 -4 -7 -3 -8 4 -4
16 9 16 9 -13 40 -17 19 -25 22 -25 12z"/>
<path d="M1222 1197 c-2 -36 0 -38 25 -35 14 2 28 9 29 16 1 7 0 8 -3 2 -2 -5
-13 -10 -23 -10 -14 0 -20 9 -23 33 -4 31 -4 31 -5 -6z"/>
<path d="M1262 1216 c7 -8 15 -12 17 -11 5 6 -10 25 -20 25 -5 0 -4 -6 3 -14z"/>
<path d="M1402 1198 c-2 -34 1 -38 21 -37 15 1 17 3 5 6 -10 2 -18 17 -21 36
-4 31 -4 31 -5 -5z"/>
<path d="M1473 1195 c0 -22 2 -30 4 -17 2 12 2 30 0 40 -3 9 -5 -1 -4 -23z"/>
<path d="M1511 1194 c2 -29 3 -32 6 -12 l4 28 24 -28 24 -27 -1 40 c0 24 -2
31 -5 17 l-5 -24 -24 23 -24 22 1 -39z"/>
<path d="M1595 1210 c-4 -12 -1 -27 5 -35 16 -20 60 -19 60 0 0 8 -5 15 -11
15 -5 0 -7 -4 -4 -10 3 -5 -3 -10 -15 -10 -25 0 -37 25 -20 45 8 9 8 15 2 15
-6 0 -14 -9 -17 -20z"/>
<path d="M1681 1198 c-1 -33 2 -38 22 -37 16 1 18 2 5 6 -10 2 -18 8 -18 13 0
5 8 11 18 13 15 4 15 5 0 6 -9 0 -19 9 -21 19 -3 9 -5 0 -6 -20z"/>
<path d="M1751 1220 c0 -8 13 -25 30 -38 l29 -24 -1 39 c-1 23 -3 29 -6 16 -2
-13 -7 -23 -10 -23 -2 0 -13 10 -24 23 -13 15 -18 18 -18 7z"/>
<path d="M1871 1198 c-1 -35 1 -38 27 -37 23 2 24 2 5 6 -27 5 -30 20 -5 26
15 4 15 5 0 6 -9 0 -19 9 -21 19 -3 9 -5 0 -6 -20z"/>
<path d="M1943 1198 c4 -59 58 -47 56 12 -1 23 -2 22 -8 -5 -9 -42 -38 -45
-45 -6 l-6 31 3 -32z"/>
<path d="M2022 1195 c0 -22 2 -32 5 -22 2 9 8 17 13 17 5 0 14 -8 20 -17 9
-15 11 -15 7 -2 -3 9 0 22 6 28 8 8 8 14 -2 24 -10 10 -11 9 -6 -5 5 -14 2
-18 -13 -18 -11 0 -23 8 -25 18 -3 9 -5 -1 -5 -23z"/>
<path d="M1318 1193 c6 -2 18 -2 25 0 6 3 1 5 -13 5 -14 0 -19 -2 -12 -5z"/>
<path d="M1751 1174 c0 -11 3 -14 6 -6 3 7 2 16 -1 19 -3 4 -6 -2 -5 -13z"/>
<path d="M1318 1163 c6 -2 18 -2 25 0 6 3 1 5 -13 5 -14 0 -19 -2 -12 -5z"/>
<path d="M490 1120 c0 -5 5 -10 10 -10 6 0 10 5 10 10 0 6 -4 10 -10 10 -5 0
-10 -4 -10 -10z"/>
<path d="M120 1030 l0 -60 215 0 215 0 0 60 0 60 -215 0 -215 0 0 -60z m113
30 c6 -24 1 -25 -19 -5 -20 20 -34 19 -34 -1 0 -10 6 -14 15 -10 10 4 15 -1
15 -16 0 -17 -2 -18 -15 -8 -13 10 -15 9 -15 -9 0 -25 17 -27 42 -4 17 15 18
15 18 -5 0 -19 -6 -22 -42 -22 l-43 0 0 50 0 50 36 0 c28 0 38 -5 42 -20z m60
-10 c6 -16 14 -30 17 -30 3 0 11 14 17 30 18 48 38 38 38 -20 0 -39 -4 -50
-16 -50 -12 0 -15 8 -12 33 l3 32 -16 -35 -17 -35 -18 40 -18 40 -1 -32 c0
-17 6 -34 13 -36 6 -3 3 -6 -8 -6 -17 -1 -20 5 -20 49 0 58 20 68 38 20z m167
6 c0 -19 -1 -19 -20 -1 -16 14 -23 16 -32 7 -9 -9 -4 -14 21 -23 24 -9 31 -16
29 -33 -2 -16 -10 -21 -35 -22 -31 -1 -32 0 -31 40 0 45 8 54 44 52 16 -1 24
-7 24 -20z m55 -26 c0 -47 -2 -50 -25 -50 -18 0 -21 3 -11 9 10 6 12 21 8 50
-4 34 -2 41 11 41 14 0 17 -10 17 -50z"/>
<path d="M402 1008 c5 -15 37 -18 41 -3 1 6 -9 12 -22 13 -16 3 -22 -1 -19
-10z"/>
<path d="M1080 1080 c0 -7 172 -10 495 -10 323 0 495 3 495 10 0 7 -172 10
-495 10 -323 0 -495 -3 -495 -10z"/>
<path d="M948 993 c5 -21 7 -23 10 -9 2 10 0 22 -6 28 -6 6 -7 0 -4 -19z"/>
<path d="M996 1012 c-2 -4 2 -16 10 -27 8 -10 14 -14 14 -8 0 7 -5 15 -10 18
-6 4 -8 11 -5 16 4 5 4 9 1 9 -3 0 -7 -3 -10 -8z"/>
<path d="M762 990 c0 -14 2 -19 5 -12 2 6 2 18 0 25 -3 6 -5 1 -5 -13z"/>
<path d="M787 995 c-4 -8 -2 -17 3 -20 6 -4 10 3 10 14 0 25 -6 27 -13 6z"/>
<path d="M882 990 c0 -14 2 -19 5 -12 2 6 2 18 0 25 -3 6 -5 1 -5 -13z"/>
<path d="M1081 994 c0 -11 3 -14 6 -6 3 7 2 16 -1 19 -3 4 -6 -2 -5 -13z"/>
<path d="M1150 1006 c0 -2 8 -10 18 -17 15 -13 16 -12 3 4 -13 16 -21 21 -21
13z"/>
<path d="M1530 1006 c0 -2 8 -10 18 -17 15 -13 16 -12 3 4 -13 16 -21 21 -21
13z"/>
<path d="M838 973 c7 -3 16 -2 19 1 4 3 -2 6 -13 5 -11 0 -14 -3 -6 -6z"/>
</g>
</svg>
